<?xml version="1.0" encoding="utf-8"?>
<!-- Generator: Adobe Illustrator 18.1.1, SVG Export Plug-In . SVG Version: 6.00 Build 0)  -->
<svg version="1.1" id="Layer_1" xmlns="http://www.w3.org/2000/svg" xmlns:xlink="http://www.w3.org/1999/xlink" x="0px" y="0px"
	 viewBox="0 0 80 80" enable-background="new 0 0 80 80" xml:space="preserve">
<g>
	<g>
		<path fill="#FFFF00" d="M40,26.8l13.7,13.7L40,54.2L26.3,40.5L40,26.8 M40,21.1L20.6,40.5L40,59.9l19.4-19.4L40,21.1L40,21.1z"/>
	</g>
	<g>
		<path fill="#FFFF00" d="M40,37.1l3.4,3.4L40,43.9l-3.4-3.4L40,37.1 M40,31.5l-9,9l9,9l9-9L40,31.5L40,31.5z"/>
	</g>
	<g>
		<path fill="#FFFF00" d="M40,6.2l34.3,34.3L40,74.8L5.7,40.5L40,6.2 M40,0.5l-40,40l40,40l40-40L40,0.5L40,0.5z"/>
	</g>
</g>
</svg>
